# xmcd
# Track frame offsets:
# 150
# 6507
# 24892
# 47907
# 72002
# 108625
# 114545
# 133292
# 162195
# 190522
# 214582
# 232097
# 279495
#
# Disc length: 4229 seconds
# Revision: 0
# Processed by: cddbd v1.5.2PL0 Copyright (c) Steve Scherf et al.
# Submitted via: VisiTrax 2.11.2.271 - For more info visit www.synapsa.com
#
DISCID=b610830d
DTITLE=Turning Blue - Live - The Tasmania Tapes
DYEAR=1997
DGENRE=Blues
TTITLE0=intro by tommy dean
TTITLE1=blues band blues
TTITLE2=take my time
TTITLE3=didn't see it coming
TTITLE4=baby, please don't go
TTITLE5=highly strung
TTITLE6=home grown boogie
TTITLE7=ghost train
TTITLE8=back off
TTITLE9=red hot
TTITLE10=mid life crisis attack
TTITLE11=roadhouse blues
TTITLE12=down by the river
EXTD=YEAR: 1997
EXTT0=
EXTT1=
EXTT2=
EXTT3=
EXTT4=
EXTT5=
EXTT6=
EXTT7=
EXTT8=
EXTT9=
EXTT10=
EXTT11=
EXTT12=
PLAYORDER=
